PathFileType	4	(X/Y/Z)	Patient4_TMGait_0pt3_01_left_28.trc.trc
DataRate	CameraRate	NumFrames	NumMarkers	Units	OrigDataRate	OrigDataStartFrame	OrigNumFrames
51.094890510949	51.094890510949	4	33	mm	51.094890510949	36	       141
Frame#	Time	Sacral			L.Shoulder			Chest			R.Shoulder			Neck			R.ASIS			L.ASIS			R.Thigh.Superior			R.Thigh.Lateral			R.Thigh.Inferior			R.Patella			L.Thigh.Superior			L.Thigh.Lateral			L.Thigh.Inferior			L.Patella			L.Shank.Superior			L.Shank.Lateral			L.Shank.Inferior			R.Shank.Superior			R.Shank.Lateral			R.Shank.Inferior			R.Heel			R.Midfoot.Superior			R.Midfoot.Lateral			R.Toe			L.Heel			L.Midfoot.Lateral			L.Midfoot.Superior			L.Toe			L.Elbow			L.Wrist			R.Elbow			R.Wrist			
		X1	Y1	Z1	X2	Y2	Z2	X3	Y3	Z3	X4	Y4	Z4	X5	Y5	Z5	X6	Y6	Z6	X7	Y7	Z7	X8	Y8	Z8	X9	Y9	Z9	X10	Y10	Z10	X11	Y11	Z11	X12	Y12	Z12	X13	Y13	Z13	X14	Y14	Z14	X15	Y15	Z15	X16	Y16	Z16	X17	Y17	Z17	X18	Y18	Z18	X19	Y19	Z19	X20	Y20	Z20	X21	Y21	Z21	X22	Y22	Z22	X23	Y23	Z23	X24	Y24	Z24	X25	Y25	Z25	X26	Y26	Z26	X27	Y27	Z27	X28	Y28	Z28	X29	Y29	Z29	X30	Y30	Z30	X31	Y31	Z31	X32	Y32	Z32	X33	Y33	Z33	

36	53.465000000000	704.641264505087	1000.891513874939	503.786883325274	829.408772905160	1414.148030347818	266.551081702435	968.710095460811	1356.646852640870	403.700402604263	924.161731327782	1445.880002951482	583.544651732593	846.934768737729	1485.430521621014	417.242571799630	946.975577998389	936.587755899604	584.673550088998	893.240750786645	950.921984361464	315.388162464111	942.499379844822	720.002210127941	560.950354486371	844.827418680499	623.201688441638	629.720123839515	900.531410964899	558.471533094098	545.821556319527	880.233284863952	467.145945818009	554.968622552723	975.494170650175	762.104763982294	348.943962334082	908.175096887255	632.796694270884	287.700616342833	1009.669080129650	571.227734432774	345.111092917961	1021.820203789143	500.443424666258	351.067391812347	998.555779341671	424.327358987918	343.307122819888	913.991538844222	305.712992221927	291.881916089538	975.229395426937	196.683086783179	359.300107449609	828.893726303312	388.165945034354	565.439093149956	735.269726461396	306.240673181377	632.133600096992	751.158339463081	203.748393460007	571.530297971788	583.309578526105	59.666410006831	543.768705151797	758.258631601468	99.828333078462	584.074647147492	663.498695770624	46.010712628350	620.281964571567	870.494608902435	38.740741430789	617.741897048875	854.674542833822	37.680625859008	399.417195663703	928.937315926006	35.341039810189	318.304506032020	1011.231974609503	98.606637116757	345.251736624202	1139.634042932422	50.085536671954	317.589357616911	696.599355010456	1080.874939447034	207.190351210764	683.360385435306	821.512952983264	242.527067107903	1138.332923142672	1198.824252913209	699.399175063756	1362.281684809532	1287.381930202851	613.402421248015	
37	53.484571428571	703.740246510798	1002.240200584570	498.494861867412	830.972221229426	1414.865273069246	261.798922872344	968.946648144312	1357.601759743718	400.343956784422	922.861379767953	1447.373403391660	579.529759171145	847.146010777069	1486.600575138230	412.498747297697	945.441044007536	937.580904005431	581.386669826225	893.686368140199	952.163748031316	311.738339772117	942.252722973969	721.195456544304	557.909056337968	845.113418703276	624.097152880499	626.673369713572	901.903534681896	559.129371226454	543.435948518370	882.179628186546	466.770398529129	553.586157907732	973.837052675734	761.674563587726	344.712147887765	904.749266785038	632.993885123865	284.584584614016	1005.404490335246	570.584426729075	342.346622596561	1016.780258885285	500.023177646669	348.749536299829	993.349593238148	424.028328360988	341.212108499656	908.423008048138	305.394579536612	290.542971427624	969.431228308961	196.586220181828	358.486686434325	829.090777206898	388.732215971709	563.963483924561	733.830609062811	308.690316582413	630.462202887745	748.633206879180	205.507395880142	570.865541827076	578.676898509448	64.311852513259	543.683909102456	754.270543405052	100.743494208514	584.057256403013	658.568428176624	48.860537694204	620.139192999162	865.046768050048	38.068682256904	617.739018279925	848.802640647137	37.599952114867	399.335690890746	923.064697665099	35.271390061925	318.182180084827	1005.265373282119	98.729541227865	345.017053792384	1133.767579149616	50.362923529264	317.531904830887	701.466853472715	1080.218447306075	199.805465512184	692.341460767713	820.469663534569	233.346134486481	1134.654065234758	1197.621084789894	696.023267620920	1360.982309383335	1281.786268130944	611.381852125538	
38	53.504142857143	702.704349409042	1003.622288893367	493.309134985802	832.508885335383	1415.671890063933	257.202770954612	969.019169749150	1358.703929168855	397.265554677523	921.248205335626	1449.025628475062	575.740802097556	847.221862513676	1487.891609020000	407.897585554825	943.818103335632	938.711315278273	578.242498305192	894.003957463775	953.537334962620	308.206632019449	942.355418887199	722.630065056848	554.902713376301	846.003620029578	625.026148897483	623.665605781992	904.026889831372	559.944690471833	541.084811139410	884.957410861473	466.440074966507	552.310522433249	971.795830440629	761.165279207298	340.477306069024	900.723379005502	633.235505806960	281.559891182461	1000.485174267765	569.902528339225	339.623711709546	1010.992142685014	499.621034755062	346.453362085576	987.513934856514	423.809950895205	339.111090501403	902.352633264819	305.050205707427	289.265135041881	963.372368575304	196.534884071179	357.654086213380	830.023575639381	389.393690090774	562.551722127552	733.020476245737	311.380160048542	628.766700556126	746.605276090945	207.479664454904	570.183052752757	574.333427877174	69.547951796038	543.526226282523	750.590168875564	101.741815848416	584.041478549041	653.822643226596	52.109481063221	619.958871937292	859.634279205295	37.462979305322	617.719967187600	842.904660698375	37.516068093886	399.281101367591	917.152986178394	35.181037380648	318.077080466549	999.259944883821	98.841385093160	344.757487376930	1127.861373690470	50.605945449894	317.447870467212	707.086677632103	1079.475534350313	192.221139146757	702.013982051342	819.427687447405	223.921727619184	1129.795502362249	1195.874285726292	693.287387308201	1358.825675335319	1274.784748845201	610.236179020438	
39	53.523714285714	701.574306731956	1004.997787979446	488.251707502044	833.926536310294	1416.562018103382	252.810429881471	968.896250625176	1359.939082635505	394.444657419844	919.355278070017	1450.778592644153	572.194852758302	847.127183795530	1489.274440088457	403.485247382670	942.158787259959	939.939582349680	575.191217260865	894.202486914512	955.006450197872	304.762438047965	942.795764182252	724.255127788041	551.926509911600	847.455241607252	625.974364977501	620.706560982666	906.828743418335	560.896754326781	538.760841269257	888.461624427524	466.168761098263	551.114294860305	969.441874668222	760.604692183929	336.315625332292	896.245414609424	633.523871903634	278.631555866232	995.049655621039	569.198825507148	336.971553134316	1004.605298243142	499.242156554818	344.208770720606	981.190042041342	423.668018585500	337.035208783993	895.910567227785	304.695208330974	288.040711523364	957.121412650787	196.524626198972	356.824800039438	831.632316577753	390.144208197877	561.195332600551	732.802319627914	314.294401344226	627.046697117128	745.055629000379	209.648095877660	569.478063758497	570.306559288273	75.323899305149	543.261503449275	747.210012470986	102.813688271571	584.018403696902	649.268438096684	55.733855827160	619.720350480792	854.248680217269	36.945746001348	617.689658569220	836.985688095244	37.437340908654	399.252613928013	911.209122083825	35.081431850459	317.991946926647	993.227935566072	98.935462481828	344.491032796764	1121.923491251942	50.807302453212	317.346690512882	713.523565726598	1078.613907582116	184.549929273973	712.476812310391	818.352434444832	214.331962445409	1123.707457106751	1193.493439907406	691.151925785664	1355.737265713859	1266.174847282410	609.955265451998	
